<svg xmlns="http://www.w3.org/2000/svg" width="358.288" height="162.575" viewBox="0 0 358.288 162.575">
  <g id="Group_2" data-name="Group 2" transform="translate(-720.134 -105.686)">
    <g id="Group_1" data-name="Group 1" transform="translate(720.134 105.686)">
      <path id="cube-fill-svgrepo-com" d="M77.216,79.454,147.6,39.483a17.522,17.522,0,0,0-4.11-2.914L90.814,6.535A27.613,27.613,0,0,0,77.216,2.5a27.612,27.612,0,0,0-13.6,4.035L10.946,36.569a17.492,17.492,0,0,0-4.109,2.914Z" transform="translate(-1.382 -2.5)" fill="#5b4fb9"/>
      <path id="cube-fill-svgrepo-com-2" data-name="cube-fill-svgrepo-com" d="M74.964,141.285V64.629L4.809,24.583a24.983,24.983,0,0,0-.6,5.678v58.2c0,10.833,3.81,14.868,10.759,18.828l58.5,33.322A6.586,6.586,0,0,0,74.964,141.285Z" transform="translate(-4.211 21.291)" fill="#2a8edc"/>
      <path id="cube-fill-svgrepo-com-3" data-name="cube-fill-svgrepo-com" d="M43.162,141.285a6.586,6.586,0,0,0,1.494-.672l58.5-33.322c6.948-3.96,10.758-7.995,10.758-18.828v-58.2a25.005,25.005,0,0,0-.6-5.678L43.162,64.629Z" transform="translate(37.752 21.291)" fill="#e84da0"/>
    </g>
    <path id="Path_1" data-name="Path 1" d="M31.68-45.156a19.644,19.644,0,0,0-7.207,1.289,15.622,15.622,0,0,0-5.664,3.75,17.2,17.2,0,0,0-3.691,6.074,23.856,23.856,0,0,0-1.328,8.262A24.747,24.747,0,0,0,15-17.676a15.611,15.611,0,0,0,3.477,5.84A14.463,14.463,0,0,0,24-8.3a21.481,21.481,0,0,0,7.4,1.191,40.285,40.285,0,0,0,6.055-.469,34.777,34.777,0,0,0,5.781-1.367V-.7a43.991,43.991,0,0,1-5.9,1.23,46.654,46.654,0,0,1-6.562.449A33.09,33.09,0,0,1,19.1-.918,22.778,22.778,0,0,1,10.684-6.27a22.244,22.244,0,0,1-5.078-8.281A31.855,31.855,0,0,1,3.906-25.2,32.937,32.937,0,0,1,5.723-36.289a25.81,25.81,0,0,1,5.234-8.867,23.806,23.806,0,0,1,8.555-5.9,30.352,30.352,0,0,1,11.621-2.187,42.045,42.045,0,0,1,6.289.449,30.479,30.479,0,0,1,5.352,1.27V-43.4a37.832,37.832,0,0,0-5.82-1.367A36.745,36.745,0,0,0,31.68-45.156ZM68.555.977A20.527,20.527,0,0,1,59.1-.957a13.53,13.53,0,0,1-5.664-5.215,13.983,13.983,0,0,1-1.5-3.867,20.815,20.815,0,0,1-.488-4.687V-37.852H60.7V-15.7a17.3,17.3,0,0,0,.273,3.3A8.533,8.533,0,0,0,61.8-10a5.935,5.935,0,0,0,2.656,2.559,9.258,9.258,0,0,0,4.1.84,9.061,9.061,0,0,0,4.277-.937,6,6,0,0,0,2.676-2.852,11.862,11.862,0,0,0,.9-5.117V-37.852h9.258v23.125a17.085,17.085,0,0,1-1.6,7.773,12.969,12.969,0,0,1-2.324,3.262,13.61,13.61,0,0,1-3.359,2.5A17.711,17.711,0,0,1,74,.41,24.157,24.157,0,0,1,68.555.977ZM131.8-19.57a25.634,25.634,0,0,1-1.484,9.063,19.066,19.066,0,0,1-3.887,6.484,15.484,15.484,0,0,1-5.41,3.77,15.875,15.875,0,0,1-6.055,1.23,13.165,13.165,0,0,1-3.867-.527,13.332,13.332,0,0,1-3.008-1.309A11.937,11.937,0,0,1,105.918-2.5a14.725,14.725,0,0,1-1.387-1.523h-.156L103.477,0H95.82q.078-1.68.137-4.16t.059-4.707v-47.7h9.258V-40.82q0,1.68-.02,3.105t-.059,2.207h.078a22.858,22.858,0,0,1,1.953-1.211,17.112,17.112,0,0,1,2.3-1.055,16.292,16.292,0,0,1,2.7-.742,16.372,16.372,0,0,1,3.047-.273,16.961,16.961,0,0,1,6.152,1.152,14.914,14.914,0,0,1,5.313,3.516,16.823,16.823,0,0,1,3.691,6.055A24.381,24.381,0,0,1,131.8-19.57Zm-9.57.469a19.284,19.284,0,0,0-.859-6.113,9.632,9.632,0,0,0-2.246-3.906,7.306,7.306,0,0,0-2.891-1.816,10,10,0,0,0-2.988-.469,11.374,11.374,0,0,0-4.141.82,14.62,14.62,0,0,0-3.828,2.188v18.125a13.056,13.056,0,0,0,1.348,1.309,11.553,11.553,0,0,0,1.8,1.25,11.229,11.229,0,0,0,2.168.938,8.235,8.235,0,0,0,2.5.371,8.216,8.216,0,0,0,3.965-.918,8.1,8.1,0,0,0,2.852-2.6,12.349,12.349,0,0,0,1.738-4A21.186,21.186,0,0,0,122.227-19.1ZM159.492-6.484a30.661,30.661,0,0,0,5.625-.547,43.528,43.528,0,0,0,5.938-1.562v7.383A27.716,27.716,0,0,1,165.547.273a41.259,41.259,0,0,1-7.7.7,27.6,27.6,0,0,1-7.637-1.035,16.611,16.611,0,0,1-6.309-3.34,16.075,16.075,0,0,1-4.277-5.977,22.467,22.467,0,0,1-1.582-8.906,25.11,25.11,0,0,1,1.484-9.023,18.365,18.365,0,0,1,3.984-6.406,16.4,16.4,0,0,1,5.723-3.809,18.016,18.016,0,0,1,6.66-1.27A19.354,19.354,0,0,1,162.52-37.7a13.3,13.3,0,0,1,5.234,3.438,16.066,16.066,0,0,1,3.438,6.035,27.691,27.691,0,0,1,1.23,8.73q-.039,1.953-.117,3.32H147.5a11.347,11.347,0,0,0,1.172,4.473,8.616,8.616,0,0,0,2.559,3.008,10.537,10.537,0,0,0,3.691,1.68A18.811,18.811,0,0,0,159.492-6.484Zm-3.711-25.078a7.246,7.246,0,0,0-3.125.645,7.333,7.333,0,0,0-2.363,1.758,8.578,8.578,0,0,0-1.582,2.6,12.515,12.515,0,0,0-.781,3.164h14.883a10.868,10.868,0,0,0-.449-3.164,7.782,7.782,0,0,0-1.328-2.6,6.284,6.284,0,0,0-2.187-1.758A6.863,6.863,0,0,0,155.781-31.562Z" transform="translate(906 221)"/>
  </g>
</svg>
